HIERARCHY
ROOT Hips
{
 OFFSET 0.000000 0.000000 0.000000
 CHANNELS 6 Xposition Yposition Zposition Yrotation Xrotation Zrotation
 JOINT Chest
 {
  OFFSET 0.000000 9.588913 -0.003946
  CHANNELS 3 Yrotation Xrotation Zrotation
  JOINT Chest2
  {
   OFFSET 0.000000 9.541882 0.008053
   CHANNELS 3 Yrotation Xrotation Zrotation
   JOINT Chest3
   {
    OFFSET 0.000000 9.501360 0.000000
    CHANNELS 3 Yrotation Xrotation Zrotation
    JOINT Chest4
    {
     OFFSET 0.000000 9.491660 0.000000
     CHANNELS 3 Yrotation Xrotation Zrotation
     JOINT Neck
     {
      OFFSET 0.000000 14.331917 0.000000
      CHANNELS 3 Yrotation Xrotation Zrotation
      JOINT Head
      {
       OFFSET 0.000000 8.884799 0.017034
       CHANNELS 3 Yrotation Xrotation Zrotation
       End Site
       {
        OFFSET 0.000000 16.896195 0.008993
       }
      }
     }
     JOINT RightCollar
     {
      OFFSET -2.923010 9.499495 0.000000
      CHANNELS 3 Yrotation Xrotation Zrotation
      JOINT RightShoulder
      {
       OFFSET -13.795216 0.000000 0.000000
       CHANNELS 3 Yrotation Xrotation Zrotation
       JOINT RightElbow
       {
        OFFSET -30.272209 0.000000 0.000000
        CHANNELS 3 Yrotation Xrotation Zrotation
        JOINT RightWrist
        {
         OFFSET -24.478199 0.000000 0.000000
         CHANNELS 3 Yrotation Xrotation Zrotation
         End Site
         {
          OFFSET -18.090752 0.000000 0.000000
         }
        }
       }
      }
     }
     JOINT LeftCollar
     {
      OFFSET 2.923010 9.499495 0.000000
      CHANNELS 3 Yrotation Xrotation Zrotation
      JOINT LeftShoulder
      {
       OFFSET 13.795216 0.000000 0.000000
       CHANNELS 3 Yrotation Xrotation Zrotation
       JOINT LeftElbow
       {
        OFFSET 30.272209 0.000000 0.000000
        CHANNELS 3 Yrotation Xrotation Zrotation
        JOINT LeftWrist
        {
         OFFSET 24.478199 0.000000 0.000000
         CHANNELS 3 Yrotation Xrotation Zrotation
         End Site
         {
          OFFSET 18.090752 0.000000 0.000000
         }
        }
       }
      }
     }
    }
   }
  }
 }
 JOINT RightHip
 {
  OFFSET -7.826875 0.019532 0.001973
  CHANNELS 3 Yrotation Xrotation Zrotation
  JOINT RightKnee
  {
   OFFSET 0.000000 -40.546152 -0.001885
   CHANNELS 3 Yrotation Xrotation Zrotation
   JOINT RightAnkle
   {
    OFFSET 0.000000 -39.417092 -0.003189
    CHANNELS 3 Yrotation Xrotation Zrotation
    JOINT RightToe
    {
     OFFSET 0.000000 -7.579396 17.243563
     CHANNELS 3 Yrotation Xrotation Zrotation
     End Site
     {
      OFFSET 0.000000 -1.500329 6.694466
     }
    }
   }
  }
 }
 JOINT LeftHip
 {
  OFFSET 7.826875 0.019532 0.001973
  CHANNELS 3 Yrotation Xrotation Zrotation
  JOINT LeftKnee
  {
   OFFSET 0.000000 -40.546152 -0.001885
   CHANNELS 3 Yrotation Xrotation Zrotation
   JOINT LeftAnkle
   {
    OFFSET 0.000000 -39.417092 -0.003189
    CHANNELS 3 Yrotation Xrotation Zrotation
    JOINT LeftToe
    {
     OFFSET 0.000000 -7.579396 17.243563
     CHANNELS 3 Yrotation Xrotation Zrotation
     End Site
     {
      OFFSET 0.000000 -1.500329 6.694466
     }
    }
   }
  }
 }
}
MOTION
Frames: 14
Frame Time: 0.008333
0.000000 87.345680 0.000000 0.000000 -5.767889 0.000000 0.000000 11.653876 0.000000 0.000000 -5.885988 0.000000 0.000000 -0.000000 0.000000 0.000000 -0.000000 0.000000 0.000000 12.528808 0.000000 0.000000 0.711711 0.000000 0.000000 -0.000000 0.000000 0.000000 -0.000000 0.000000 2.309063 -0.000000 0.000000 -2.309063 -0.000000 -0.000000 0.000000 -0.000000 0.000000 0.000000 0.000000 0.000000 -2.309063 0.000000 0.000000 2.309063 -0.000000 0.000000 0.000000 8.520374 0.000000 0.000000 1.905768 0.000000 -0.000000 -4.658254 0.000000 0.000000 -0.000000 0.000000 0.000000 8.520374 0.000000 0.000000 1.905768 0.000000 -0.000000 -4.658254 0.000000 0.000000 -0.000000 0.000000
-3.158623 45.581683 -20.183086 6.086186 -21.716618 -1.502268 11.807187 8.763439 4.081518 6.503067 5.126288 1.816332 8.162161 6.372829 2.363168 6.503067 5.126288 1.816332 13.132274 8.245075 0.331652 15.347380 -16.932435 -3.002423 9.223810 -3.624662 -3.011014 11.849708 -30.774008 60.306909 65.271705 9.546112 18.599016 -5.044420 3.976094 2.137356 -1.561483 -4.335200 3.491957 -6.151398 -33.213356 -68.351672 -55.054732 -8.201537 -37.838461 5.218315 2.809828 -0.730623 38.864578 -70.476846 -14.235018 145.789619 70.097080 161.450893 -2.317383 -18.273720 -0.386117 -0.251076 0.557659 -0.111270 30.648593 -85.738861 34.614419 -152.362126 67.262862 -123.967554 1.021951 -10.022870 -10.465071 0.004028 -0.576947 0.003238
-3.158843 45.580857 -20.184138 6.098033 -21.715730 -1.503984 11.803316 8.762688 4.077616 6.504860 5.125755 1.815400 8.164387 6.372169 2.362016 6.504860 5.125755 1.815400 13.146582 8.239032 0.332106 15.366507 -16.938836 -3.006183 9.227107 -3.625844 -3.004973 11.832262 -30.771467 60.306173 65.266486 9.547094 18.590673 -5.042297 3.979185 2.142124 -1.565604 -4.334768 3.494311 -6.159408 -33.225579 -68.368654 -55.046726 -8.187077 -37.833252 5.221310 2.809384 -0.731183 38.851155 -70.475797 -14.236412 145.783461 70.095885 161.443924 -2.321398 -18.275927 -0.387730 -0.248353 0.557426 -0.110850 30.674971 -85.742852 34.578649 -152.357041 67.261576 -123.963728 1.021955 -10.016395 -10.459665 0.002397 -0.579275 0.001060
-3.158732 45.579980 -20.184947 6.110523 -21.717114 -1.503438 11.798367 8.765087 4.070009 6.507050 5.124762 1.814852 8.167111 6.370926 2.361343 6.507050 5.124762 1.814852 13.156165 8.233306 0.330621 15.380010 -16.944987 -3.010888 9.225148 -3.628690 -3.000216 11.815084 -30.770526 60.309547 65.260234 9.551469 18.586455 -5.038354 3.978454 2.147874 -1.571652 -4.332777 3.495102 -6.167966 -33.241385 -68.379317 -55.030403 -8.175981 -37.833399 5.225357 2.802581 -0.730752 38.841570 -70.472620 -14.241744 145.781085 70.092561 161.439750 -2.324962 -18.277754 -0.387211 -0.247360 0.555703 -0.110858 30.707597 -85.742862 34.536737 -152.346083 67.257852 -123.953717 1.021836 -10.010777 -10.455523 0.002944 -0.581513 -0.000182
-3.158515 45.579218 -20.185106 6.119581 -21.723014 -1.500821 11.796289 8.769690 4.061875 6.509137 5.124451 1.814352 8.169713 6.370534 2.360740 6.509137 5.124451 1.814352 13.163733 8.227265 0.326607 15.391639 -16.951500 -3.018021 9.223263 -3.634929 -2.995945 11.795845 -30.768064 60.315885 65.254736 9.557046 18.585136 -5.035052 3.972979 2.152862 -1.577237 -4.332231 3.496183 -6.177069 -33.259417 -68.384709 -55.005662 -8.166996 -37.839039 5.227049 2.794251 -0.732710 38.834416 -70.466175 -14.245718 145.782701 70.089045 161.439222 -2.324424 -18.277265 -0.385343 -0.247661 0.552205 -0.111305 30.713386 -85.737218 34.524951 -152.337419 67.252732 -123.945150 1.022209 -10.007958 -10.452990 0.003644 -0.583546 -0.001230
-3.158594 45.578406 -20.185104 6.126472 -21.729840 -1.498850 11.795957 8.772919 4.056612 6.510589 5.124617 1.813768 8.171523 6.370745 2.360032 6.510589 5.124617 1.813768 13.170549 8.221683 0.320445 15.402842 -16.957464 -3.027455 9.222395 -3.641585 -2.991699 11.778145 -30.764562 60.322246 65.249789 9.561137 18.585333 -5.037211 3.970145 2.152748 -1.580575 -4.332468 3.499124 -6.184345 -33.280201 -68.389821 -54.973871 -8.157806 -37.849110 5.226113 2.786958 -0.737512 38.832732 -70.460084 -14.251321 145.785313 70.086787 161.441251 -2.323102 -18.274500 -0.383479 -0.246086 0.547965 -0.110664 30.701758 -85.730562 34.531851 -152.331158 67.247842 -123.937935 1.024573 -10.007170 -10.451992 0.003622 -0.584386 -0.002128
-3.159142 45.577400 -20.185416 6.132733 -21.734330 -1.499068 11.797058 8.773166 4.054821 6.512015 5.124200 1.812944 8.173292 6.370230 2.359014 6.512015 5.124200 1.812944 13.174689 8.217309 0.313933 15.410534 -16.962136 -3.036496 9.220058 -3.645365 -2.987802 11.763389 -30.763413 60.327756 65.241090 9.563829 18.586116 -5.036761 3.972071 2.151624 -1.588170 -4.331214 3.504198 -6.188959 -33.303526 -68.393180 -54.940313 -8.148699 -37.860352 5.225801 2.780694 -0.741227 38.837490 -70.456398 -14.260907 145.785484 70.086522 161.443034 -2.323545 -18.272012 -0.381489 -0.242702 0.545457 -0.109181 30.690377 -85.727919 34.537843 -152.329198 67.244241 -123.933321 1.027671 -10.005618 -10.452455 0.003368 -0.585060 -0.002525
-3.159716 45.576332 -20.185875 6.138843 -21.737845 -1.499489 11.799460 8.771647 4.054212 6.513841 5.122902 1.811861 8.175552 6.368617 2.357660 6.513842 5.122902 1.811861 13.176112 8.214628 0.308177 15.414293 -16.964993 -3.043804 9.216543 -3.645610 -2.982974 11.746855 -30.764456 60.333048 65.230467 9.567648 18.591023 -5.029985 3.974015 2.151767 -1.602104 -4.326178 3.511478 -6.192039 -33.329313 -68.391777 -54.907382 -8.140077 -37.872932 5.226318 2.773985 -0.742503 38.840684 -70.452019 -14.268790 145.782888 70.087593 161.441826 -2.325722 -18.273214 -0.377858 -0.240249 0.546659 -0.109069 30.688094 -85.727933 34.533812 -152.330379 67.238880 -123.931194 1.032981 -10.001689 -10.452752 0.001852 -0.587551 -0.003072
-3.160078 45.575213 -20.186603 6.146065 -21.739750 -1.499495 11.800058 8.767875 4.053723 6.515444 5.121063 1.810642 8.177525 6.366332 2.356123 6.515444 5.121063 1.810642 13.178154 8.213046 0.302465 15.418724 -16.966583 -3.051188 9.210070 -3.643803 -2.976412 11.732230 -30.765357 60.336398 65.220184 9.574187 18.598340 -5.020240 3.973195 2.154558 -1.616310 -4.317167 3.518701 -6.198177 -33.357470 -68.386055 -54.872460 -8.130611 -37.889363 5.224670 2.764397 -0.738882 38.835940 -70.446526 -14.272259 145.776828 70.089408 161.434427 -2.326321 -18.279537 -0.374270 -0.240402 0.552352 -0.110155 30.698461 -85.729316 34.516227 -152.326444 67.231440 -123.925508 1.039351 -9.996033 -10.451150 -0.001190 -0.590583 -0.004305
-3.160237 45.574019 -20.187757 6.155421 -21.738958 -1.499824 11.798571 8.762168 4.053124 6.516602 5.119025 1.809816 8.178946 6.363794 2.355067 6.516602 5.119025 1.809816 13.181015 8.210578 0.295384 15.424701 -16.969119 -3.060456 9.199033 -3.642518 -2.970085 11.723911 -30.766435 60.335264 65.208110 9.580865 18.605857 -5.008590 3.970008 2.157772 -1.630913 -4.305268 3.523430 -6.208035 -33.386566 -68.377556 -54.833917 -8.120316 -37.908608 5.218814 2.750001 -0.730037 38.827544 -70.442458 -14.275473 145.771437 70.091439 161.424394 -2.323761 -18.287539 -0.371438 -0.242399 0.559460 -0.110716 30.711232 -85.732303 34.494034 -152.322350 67.226072 -123.922081 1.042725 -9.988798 -10.447845 -0.005292 -0.593710 -0.006060
-3.160303 45.572897 -20.189016 6.163648 -21.737423 -1.500410 11.798711 8.756456 4.052231 6.517819 5.116874 1.809485 8.180447 6.361105 2.354628 6.517819 5.116874 1.809485 13.182173 8.206493 0.288080 15.428710 -16.973541 -3.069581 9.187896 -3.642218 -2.964371 11.717599 -30.768869 60.331359 65.193172 9.584907 18.615832 -4.997524 3.967374 2.154952 -1.647534 -4.290776 3.527929 -6.216555 -33.416493 -68.368357 -54.789050 -8.113877 -37.930016 5.211632 2.733394 -0.721351 38.821172 -70.440807 -14.278537 145.766029 70.093042 161.413073 -2.322757 -18.292327 -0.367405 -0.244558 0.564083 -0.110885 30.708367 -85.735328 34.487965 -152.325986 67.224091 -123.927378 1.043262 -9.982548 -10.444676 -0.009487 -0.596255 -0.007830
-3.160228 45.572070 -20.189831 6.168270 -21.738617 -1.500489 11.800647 8.752831 4.050611 6.518778 5.114721 1.809101 8.181624 6.358417 2.354121 6.518778 5.114721 1.809101 13.182901 8.200977 0.282357 15.431877 -16.979641 -3.076787 9.182117 -3.641612 -2.957690 11.710227 -30.771178 60.326935 65.175397 9.586350 18.627272 -4.986497 3.965798 2.148905 -1.659978 -4.277234 3.535324 -6.225529 -33.445262 -68.359681 -54.733942 -8.117968 -37.954849 5.208431 2.717468 -0.711874 38.816218 -70.438394 -14.278050 145.757733 70.093997 161.400223 -2.325465 -18.294327 -0.362929 -0.245970 0.566297 -0.110682 30.681421 -85.734993 34.509971 -152.334482 67.223091 -123.936846 1.042697 -9.980611 -10.442433 -0.012577 -0.596969 -0.009484
-3.159774 45.571673 -20.189869 6.170769 -21.744748 -1.499226 11.803635 8.752771 4.047759 6.519418 5.112564 1.809112 8.182407 6.355718 2.354102 6.519418 5.112564 1.809112 13.184883 8.194303 0.277362 15.436603 -16.987032 -3.083542 9.180062 -3.639507 -2.952072 11.701312 -30.772906 60.323678 65.155730 9.586312 18.639433 -4.975606 3.965014 2.144995 -1.669810 -4.267000 3.544866 -6.236704 -33.471160 -68.351619 -54.669954 -8.132327 -37.984310 5.207739 2.702578 -0.694443 38.811203 -70.432254 -14.274025 145.751515 70.093933 161.391655 -2.329868 -18.294720 -0.360440 -0.244991 0.565846 -0.108737 30.636224 -85.729729 34.554079 -152.344045 67.219863 -123.946768 1.042458 -9.983056 -10.439885 -0.015147 -0.596559 -0.011052
-3.159359 45.571441 -20.189771 6.174207 -21.751462 -1.499422 11.806914 8.752555 4.046265 6.520293 5.110347 1.809993 8.183496 6.352927 2.355175 6.520293 5.110347 1.809993 13.186644 8.186526 0.271705 15.441352 -16.995668 -3.091067 9.177618 -3.636641 -2.949426 11.690327 -30.774400 60.322457 65.135192 9.586704 18.652956 -4.964479 3.964624 2.142895 -1.684848 -4.257982 3.553736 -6.246169 -33.496046 -68.342986 -54.604039 -8.149997 -38.015933 5.206947 2.689149 -0.669762 38.805927 -70.426136 -14.270762 145.743619 70.093667 161.384758 -2.335100 -18.293562 -0.362046 -0.241051 0.563470 -0.104839 30.585972 -85.724666 34.604335 -152.350695 67.217089 -123.953744 1.041565 -9.987585 -10.437319 -0.017417 -0.594171 -0.011573
